HIERARCHY
ROOT Root
{
  OFFSET 0.0 0.0 0.0
  CHANNELS 6 Xposition Yposition Zposition Zrotation Yrotation Xrotation
  JOINT Hips
  {
    OFFSET 0.0 100.0 0.0
    CHANNELS 6 Xposition Yposition Zposition Zrotation Yrotation Xrotation
    JOINT Spine1
    {
      OFFSET 5.003913 -0.037094 -0.013727
      CHANNELS 3 Zrotation Yrotation Xrotation
      JOINT Spine2
      {
        OFFSET 7.125363 -1e-06 0.0
        CHANNELS 3 Zrotation Yrotation Xrotation
        JOINT Chest
        {
          OFFSET 7.594027 1e-06 0.0
          CHANNELS 3 Zrotation Yrotation Xrotation
          JOINT Neck1
          {
            OFFSET 26.313086 -0.460272 -0.181672
            CHANNELS 3 Zrotation Yrotation Xrotation
            JOINT Neck2
            {
              OFFSET 8.045911 0.0 0.0
              CHANNELS 3 Zrotation Yrotation Xrotation
              JOINT Head
              {
                OFFSET 6.432774 0.0 0.0
                CHANNELS 3 Zrotation Yrotation Xrotation
                JOINT HeadEnd
                {
                  OFFSET 16.169773 0.06451 0.00362
                  CHANNELS 3 Zrotation Yrotation Xrotation
                }
                JOINT Jaw
                {
                  OFFSET 0.108741 3.12938 0.002639
                  CHANNELS 3 Zrotation Yrotation Xrotation
                }
                JOINT LeftEye
                {
                  OFFSET 4.45173 8.166359 3.206392
                  CHANNELS 3 Zrotation Yrotation Xrotation
                }
                JOINT RightEye
                {
                  OFFSET 4.436895 8.135758 -3.222429
                  CHANNELS 3 Zrotation Yrotation Xrotation
                }
              }
            }
          }
          JOINT LeftShoulder
          {
            OFFSET 23.218927 5.195579 1.621656
            CHANNELS 3 Zrotation Yrotation Xrotation
            JOINT LeftArm
            {
              OFFSET 15.902118 2e-06 -2e-06
              CHANNELS 3 Zrotation Yrotation Xrotation
              JOINT LeftForeArm
              {
                OFFSET 28.739307 0.0 -1e-06
                CHANNELS 3 Zrotation Yrotation Xrotation
                JOINT LeftHand
                {
                  OFFSET 27.093981 -4e-06 0.0
                  CHANNELS 3 Zrotation Yrotation Xrotation
                  JOINT LeftHandThumb1
                  {
                    OFFSET 2.276781 3.380274 0.83384
                    CHANNELS 3 Zrotation Yrotation Xrotation
                    JOINT LeftHandThumb2
                    {
                      OFFSET 4.705309 -1e-06 -1e-06
                      CHANNELS 3 Zrotation Yrotation Xrotation
                      JOINT LeftHandThumb3
                      {
                        OFFSET 2.798515 0.0 3e-06
                        CHANNELS 3 Zrotation Yrotation Xrotation
                        JOINT LeftHandThumbEnd
                        {
                          OFFSET 3.180793 4e-06 -4e-06
                          CHANNELS 3 Zrotation Yrotation Xrotation
                        }
                      }
                    }
                  }
                  JOINT LeftHandIndex1
                  {
                    OFFSET 3.247786 2.352677 0.137192
                    CHANNELS 3 Zrotation Yrotation Xrotation
                    JOINT LeftHandIndex2
                    {
                      OFFSET 6.367095 1e-06 0.0
                      CHANNELS 3 Zrotation Yrotation Xrotation
                      JOINT LeftHandIndex3
                      {
                        OFFSET 3.662364 0.0 0.0
                        CHANNELS 3 Zrotation Yrotation Xrotation
                        JOINT LeftHandIndex4
                        {
                          OFFSET 2.329242 4e-06 -4e-06
                          CHANNELS 3 Zrotation Yrotation Xrotation
                          JOINT LeftHandIndexEnd
                          {
                            OFFSET 2.767823 1e-06 0.0
                            CHANNELS 3 Zrotation Yrotation Xrotation
                          }
                        }
                      }
                    }
                  }
                  JOINT LeftHandMiddle1
                  {
                    OFFSET 3.163612 0.945023 -0.406112
                    CHANNELS 3 Zrotation Yrotation Xrotation
                    JOINT LeftHandMiddle2
                    {
                      OFFSET 6.276789 3e-06 0.0
                      CHANNELS 3 Zrotation Yrotation Xrotation
                      JOINT LeftHandMiddle3
                      {
                        OFFSET 4.35652 -1e-06 4e-06
                        CHANNELS 3 Zrotation Yrotation Xrotation
                        JOINT LeftHandMiddle4
                        {
                          OFFSET 2.996877 0.0 8e-06
                          CHANNELS 3 Zrotation Yrotation Xrotation
                          JOINT LeftHandMiddleEnd
                          {
                            OFFSET 2.323256 3e-06 -4e-06
                            CHANNELS 3 Zrotation Yrotation Xrotation
                          }
                        }
                      }
                    }
                  }
                  JOINT LeftHandRing1
                  {
                    OFFSET 2.882606 -0.309162 0.107445
                    CHANNELS 3 Zrotation Yrotation Xrotation
                    JOINT LeftHandRing2
                    {
                      OFFSET 6.033198 0.0 4e-06
                      CHANNELS 3 Zrotation Yrotation Xrotation
                      JOINT LeftHandRing3
                      {
                        OFFSET 4.350578 3e-06 0.0
                        CHANNELS 3 Zrotation Yrotation Xrotation
                        JOINT LeftHandRing4
                        {
                          OFFSET 2.651321 2e-06 -7e-06
                          CHANNELS 3 Zrotation Yrotation Xrotation
                          JOINT LeftHandRingEnd
                          {
                            OFFSET 1.937663 1e-06 -4e-06
                            CHANNELS 3 Zrotation Yrotation Xrotation
                          }
                        }
                      }
                    }
                  }
                  JOINT LeftHandPinky1
                  {
                    OFFSET 2.865315 -1.525436 0.575687
                    CHANNELS 3 Zrotation Yrotation Xrotation
                    JOINT LeftHandPinky2
                    {
                      OFFSET 5.54936 1e-06 -8e-06
                      CHANNELS 3 Zrotation Yrotation Xrotation
                      JOINT LeftHandPinky3
                      {
                        OFFSET 3.070974 0.0 -4e-06
                        CHANNELS 3 Zrotation Yrotation Xrotation
                        JOINT LeftHandPinky4
                        {
                          OFFSET 1.549672 1e-06 0.0
                          CHANNELS 3 Zrotation Yrotation Xrotation
                          JOINT LeftHandPinkyEnd
                          {
                            OFFSET 1.952123 0.0 0.0
                            CHANNELS 3 Zrotation Yrotation Xrotation
                          }
                        }
                      }
                    }
                  }
                }
              }
            }
          }
          JOINT RightShoulder
          {
            OFFSET 23.161716 5.296122 -1.380114
            CHANNELS 3 Zrotation Yrotation Xrotation
            JOINT RightArm
            {
              OFFSET -16.027195 -2e-06 1.1e-05
              CHANNELS 3 Zrotation Yrotation Xrotation
              JOINT RightForeArm
              {
                OFFSET -28.736639 4e-06 2e-06
                CHANNELS 3 Zrotation Yrotation Xrotation
                JOINT RightHand
                {
                  OFFSET -27.133619 6e-06 0.0
                  CHANNELS 3 Zrotation Yrotation Xrotation
                  JOINT RightHandThumb1
                  {
                    OFFSET -2.274328 -3.351035 -0.83067
                    CHANNELS 3 Zrotation Yrotation Xrotation
                    JOINT RightHandThumb2
                    {
                      OFFSET -4.703594 -3e-06 2e-06
                      CHANNELS 3 Zrotation Yrotation Xrotation
                      JOINT RightHandThumb3
                      {
                        OFFSET -2.794935 -4e-06 -3e-06
                        CHANNELS 3 Zrotation Yrotation Xrotation
                        JOINT RightHandThumbEnd
                        {
                          OFFSET -3.183852 4e-06 1e-06
                          CHANNELS 3 Zrotation Yrotation Xrotation
                        }
                      }
                    }
                  }
                  JOINT RightHandIndex1
                  {
                    OFFSET -3.253496 -2.33755 -0.127667
                    CHANNELS 3 Zrotation Yrotation Xrotation
                    JOINT RightHandIndex2
                    {
                      OFFSET -6.344434 0.0 0.0
                      CHANNELS 3 Zrotation Yrotation Xrotation
                      JOINT RightHandIndex3
                      {
                        OFFSET -3.654871 0.0 -8e-06
                        CHANNELS 3 Zrotation Yrotation Xrotation
                        JOINT RightHandIndex4
                        {
                          OFFSET -2.327586 -1e-06 0.0
                          CHANNELS 3 Zrotation Yrotation Xrotation
                          JOINT RightHandIndexEnd
                          {
                            OFFSET -2.770001 3e-06 8e-06
                            CHANNELS 3 Zrotation Yrotation Xrotation
                          }
                        }
                      }
                    }
                  }
                  JOINT RightHandMiddle1
                  {
                    OFFSET -3.168223 -0.944764 0.411762
                    CHANNELS 3 Zrotation Yrotation Xrotation
                    JOINT RightHandMiddle2
                    {
                      OFFSET -6.266691 -1e-06 -4e-06
                      CHANNELS 3 Zrotation Yrotation Xrotation
                      JOINT RightHandMiddle3
                      {
                        OFFSET -4.348901 0.0 0.0
                        CHANNELS 3 Zrotation Yrotation Xrotation
                        JOINT RightHandMiddle4
                        {
                          OFFSET -3.00024 2e-06 -4e-06
                          CHANNELS 3 Zrotation Yrotation Xrotation
                          JOINT RightHandMiddleEnd
                          {
                            OFFSET -2.321477 -4e-06 -4e-06
                            CHANNELS 3 Zrotation Yrotation Xrotation
                          }
                        }
                      }
                    }
                  }
                  JOINT RightHandRing1
                  {
                    OFFSET -2.885654 0.293261 -0.119232
                    CHANNELS 3 Zrotation Yrotation Xrotation
                    JOINT RightHandRing2
                    {
                      OFFSET -6.032835 -1e-06 -4e-06
                      CHANNELS 3 Zrotation Yrotation Xrotation
                      JOINT RightHandRing3
                      {
                        OFFSET -4.33881 0.0 -4e-06
                        CHANNELS 3 Zrotation Yrotation Xrotation
                        JOINT RightHandRing4
                        {
                          OFFSET -2.654903 -4e-06 -4e-06
                          CHANNELS 3 Zrotation Yrotation Xrotation
                          JOINT RightHandRingEnd
                          {
                            OFFSET -1.935122 0.0 4e-06
                            CHANNELS 3 Zrotation Yrotation Xrotation
                          }
                        }
                      }
                    }
                  }
                  JOINT RightHandPinky1
                  {
                    OFFSET -2.866241 1.503904 -0.60527
                    CHANNELS 3 Zrotation Yrotation Xrotation
                    JOINT RightHandPinky2
                    {
                      OFFSET -5.553177 -2e-06 0.0
                      CHANNELS 3 Zrotation Yrotation Xrotation
                      JOINT RightHandPinky3
                      {
                        OFFSET -3.062664 -1e-06 -4e-06
                        CHANNELS 3 Zrotation Yrotation Xrotation
                        JOINT RightHandPinky4
                        {
                          OFFSET -1.546529 2e-06 4e-06
                          CHANNELS 3 Zrotation Yrotation Xrotation
                          JOINT RightHandPinkyEnd
                          {
                            OFFSET -1.952341 0.0 -4e-06
                            CHANNELS 3 Zrotation Yrotation Xrotation
                          }
                        }
                      }
                    }
                  }
                }
              }
            }
          }
        }
      }
    }
    JOINT LeftLeg
    {
      OFFSET -8.443107 2.567604 10.043214
      CHANNELS 3 Zrotation Yrotation Xrotation
      JOINT LeftShin
      {
        OFFSET 43.229198 1e-06 -1e-06
        CHANNELS 3 Zrotation Yrotation Xrotation
        JOINT LeftFoot
        {
          OFFSET 42.298611 1e-06 1e-06
          CHANNELS 3 Zrotation Yrotation Xrotation
          JOINT LeftToeBase
          {
            OFFSET 14.165858 1e-06 0.0
            CHANNELS 3 Zrotation Yrotation Xrotation
            JOINT LeftToeEnd
            {
              OFFSET 6.7141 -0.234461 0.0
              CHANNELS 3 Zrotation Yrotation Xrotation
            }
          }
        }
      }
    }
    JOINT RightLeg
    {
      OFFSET -8.303923 2.592729 -10.047278
      CHANNELS 3 Zrotation Yrotation Xrotation
      JOINT RightShin
      {
        OFFSET -43.369682 0.0 1e-06
        CHANNELS 3 Zrotation Yrotation Xrotation
        JOINT RightFoot
        {
          OFFSET -42.260784 4e-06 2e-06
          CHANNELS 3 Zrotation Yrotation Xrotation
          JOINT RightToeBase
          {
            OFFSET -14.222245 -2e-06 -1e-06
            CHANNELS 3 Zrotation Yrotation Xrotation
            JOINT RightToeEnd
            {
              OFFSET -6.660062 0.232574 -2e-06
              CHANNELS 3 Zrotation Yrotation Xrotation
            }
          }
        }
      }
    }
  }
}
MOTION
Frames: 4
Frame Time: 0.03333333333333333
0.0 0.0 0.0 0.0 -0.0 0.0 -7.733567 49.531517 107.080696 102.003754 -53.942368 77.176033 11.938285 -3.451265 0.237515 -5.569727 -0.623105 0.842364 23.121841 -5.26509 -2.792937 24.16482 -0.221201 2.425597 -2.497582 -0.232253 0.413231 -26.879002 1.452606 -0.917657 6e-06 0.0 0.0 -0.215882 -0.028274 0.024314 -0.384177 -0.001738 0.087183 -0.373623 -0.041352 -0.056761 -39.212517 -80.945786 48.478531 74.421371 -13.634492 -40.055779 47.230938 0.347376 -0.141585 67.61367 59.479256 77.509117 17.636621 -26.322725 52.411186 -19.466661 -14.3956 29.410385 -2e-06 -8.77482 -0.0 15.658928 -19.024801 7.250932 -0.609776 -1.795653 -3.889329 -4.807087 -11.046807 -2.93785 5e-06 -20.976011 -0.0 -5.019966 -25.033552 -4.031882 7e-06 0.0 1e-06 -10.634533 -5.686968 -3.565588 10.573274 -17.922945 -3.113902 3e-06 -13.821205 1e-06 -0.501775 -31.181498 -4.027017 -12.592619 -60.165134 8.908762 -13.982711 -7.150196 -2.875041 13.772728 -8.401491 -3.21824 0.347736 -34.211552 0.771654 -0.963027 -17.73337 2.621019 -1e-06 -1e-06 -1e-06 -17.346413 -20.095209 -4.201781 21.757555 -1.638376 3.866423 1e-06 -6.338823 2e-06 -1.697587 -22.591738 -6.194003 -0.0 -7e-06 -1e-06 158.25528 -67.267792 26.694454 96.795738 -6.737225 -34.159779 11.133864 -0.33179 -0.021258 19.752781 77.07518 19.253729 22.18211 -20.3759 49.933323 -16.701815 -16.74353 28.476534 -2e-06 -12.6906 1e-06 15.872044 -17.664194 3.4532 -0.105919 -1.513855 -4.275882 -5.039041 -5.612872 -2.953556 4e-06 -11.020528 -1e-06 -6.111298 -15.895334 -3.840471 0.0 1e-06 1e-06 -10.283369 -5.680288 -4.341838 11.028294 -11.302406 -2.372633 -1.384268 -14.238581 -6.320121 -0.625439 -26.924191 -3.8276 -4.123357 -49.531284 -4.164543 -13.708524 -7.363475 -3.720939 18.14115 -14.052741 -3.242675 6e-06 -18.787275 -2e-06 -0.429711 -8.456044 2.555504 0.0 -2e-06 0.0 -15.923536 -20.094482 -5.473583 30.41921 -7.190827 1.735924 3e-06 -8.162926 -1e-06 -1.861904 -22.861469 -6.167939 0.0 -3e-06 -1e-06 117.423904 4.439773 -0.578691 113.88723 1.562349 0.385365 -60.659271 2.41876 -4.114606 -7.567822 1.491042 2.282327 -0.999998 0.0 0.0 -17.246149 -14.892992 -8.705017 57.430054 -6.187015 3.719043 -35.56953 24.81699 -5.94349 -0.897745 0.353826 1.920687 -1.000003 -0.0 1e-06 
0.0 0.0 0.0 0.0 -0.0 0.0 -7.434556 49.92675 108.187279 101.758041 -54.326122 77.283241 12.243037 -3.165844 0.06143 -5.389911 -0.693776 0.594801 22.94636 -4.601362 -2.984687 23.807013 -0.309393 2.512259 -2.4782 -0.360136 0.638526 -26.942369 1.721702 -0.645217 6e-06 0.0 -0.0 -0.225809 -0.011612 0.022845 -0.396411 -0.005859 0.076528 -0.399959 -0.005888 -0.046858 -31.057215 -79.660011 39.356152 74.382988 -6.815694 -45.238819 46.592514 0.272498 -0.058925 60.624371 59.128033 70.683838 17.636635 -26.322733 52.411186 -19.466661 -14.395597 29.410389 1e-06 -8.774822 -1e-06 15.019766 -18.773037 7.570454 -0.609776 -1.795653 -3.889329 -4.80709 -11.046812 -2.937849 3e-06 -20.976021 2e-06 -5.019973 -25.03356 -4.03188 6e-06 -1e-06 -0.0 -10.634536 -5.686971 -3.565587 10.573276 -17.922953 -3.113901 1e-06 -13.821213 2e-06 -0.501778 -31.181507 -4.027016 -12.205038 -59.444218 8.444553 -13.982716 -7.150198 -2.875041 13.772733 -8.401493 -3.218241 0.347732 -34.211559 0.771656 -0.963029 -17.733374 2.62102 -1e-06 -0.0 0.0 -17.346422 -20.095221 -4.201779 21.757561 -1.638375 3.866428 1e-06 -6.338825 1e-06 -1.69759 -22.591745 -6.194005 -1e-06 -5e-06 -2e-06 158.601349 -67.543259 26.170181 97.872505 -6.678277 -33.126797 10.346284 -0.095905 0.01257 21.408739 77.497025 21.099464 22.182121 -20.375898 49.933323 -16.701815 -16.74353 28.47653 -0.0 -12.690601 -1e-06 15.869668 -17.761492 3.429445 -0.10592 -1.513855 -4.275881 -5.039042 -5.612874 -2.953557 4e-06 -11.020529 -2e-06 -6.1113 -15.895338 -3.84047 0.0 1e-06 0.0 -10.283373 -5.680291 -4.341839 11.028296 -11.302409 -2.372632 -1.38427 -14.238581 -6.320122 -0.62544 -26.924198 -3.8276 -4.171603 -49.664688 -4.007194 -13.708527 -7.363479 -3.720941 18.141151 -14.052743 -3.242674 5e-06 -18.787277 -1e-06 -0.429712 -8.456046 2.555505 0.0 -1e-06 1e-06 -15.923539 -20.094492 -5.473586 30.419218 -7.190827 1.735931 3e-06 -8.16293 -1e-06 -1.861904 -22.861479 -6.167943 0.0 -3e-06 -1e-06 118.327057 5.284142 -0.103587 112.344696 1.641877 0.27846 -61.060566 2.606031 -4.557644 -7.49074 1.450829 2.254301 -0.999996 0.0 0.0 -21.490902 -15.50242 -8.902815 64.623367 -6.047174 3.054185 -38.889233 24.103521 -5.908885 -1.233809 0.305521 1.98469 -1.000003 1e-06 2e-06 
0.0 0.0 0.0 0.0 -0.0 0.0 -7.110201 50.26424 109.189774 101.533417 -54.610432 77.481834 12.639234 -2.877192 -0.150471 -5.178386 -0.775187 0.242588 22.877356 -3.87829 -3.244062 23.32478 -0.49201 2.577015 -2.479353 -0.513311 0.931641 -26.846825 1.858827 -0.334964 6e-06 -0.0 0.0 -0.2377 -0.030859 0.025411 -0.3986 -0.023012 0.065133 -0.422381 -0.027641 -0.027726 -23.459311 -78.130234 30.722786 73.677917 0.432362 -49.731358 41.905712 0.333431 -0.035164 52.747482 59.673275 61.740471 17.636629 -26.322742 52.411217 -19.46666 -14.3956 29.410395 -2e-06 -8.774822 -1e-06 14.665436 -18.573143 7.64542 -0.609777 -1.795653 -3.88933 -4.807088 -11.04681 -2.93785 4e-06 -20.976019 2e-06 -5.019969 -25.03356 -4.031882 6e-06 -1e-06 0.0 -10.634535 -5.686969 -3.56559 10.573276 -17.922951 -3.113901 3e-06 -13.821209 4e-06 -0.501777 -31.181505 -4.027014 -11.962552 -58.786095 8.148079 -13.982714 -7.150197 -2.875045 13.772731 -8.401492 -3.21824 0.347735 -34.211552 0.771658 -0.963029 -17.733368 2.621021 -1e-06 -2e-06 0.0 -17.34642 -20.095217 -4.201784 21.757559 -1.638375 3.866429 1e-06 -6.338824 1e-06 -1.697589 -22.591747 -6.194004 -0.0 -6e-06 -3e-06 158.518402 -67.745583 25.960978 98.861816 -6.3908 -32.104015 9.73778 -0.003635 0.035386 24.108948 77.903938 24.337444 22.182117 -20.375896 49.933319 -16.701817 -16.743532 28.476532 -0.0 -12.690603 -1e-06 15.88591 -17.791742 3.331178 -0.105919 -1.513855 -4.275882 -5.039042 -5.612873 -2.953557 5e-06 -11.020524 -2e-06 -6.111298 -15.89533 -3.840472 1e-06 1e-06 -1e-06 -10.283371 -5.680286 -4.341839 11.028297 -11.302406 -2.372634 -1.384269 -14.238575 -6.320123 -0.625437 -26.924189 -3.8276 -4.164794 -49.702503 -3.973129 -13.708528 -7.363475 -3.720938 18.141157 -14.052737 -3.242677 7e-06 -18.787271 -1e-06 -0.429711 -8.456041 2.555504 0.0 1e-06 0.0 -15.923539 -20.094482 -5.473585 30.419218 -7.190824 1.735928 4e-06 -8.162927 -1e-06 -1.861902 -22.861469 -6.167942 0.0 -3e-06 -1e-06 119.187965 6.200984 0.418022 110.907326 1.766971 0.16856 -61.207813 2.76761 -4.777031 -7.577238 1.402812 2.226543 -0.999999 0.0 -0.0 -26.506269 -16.170359 -8.327509 73.133224 -5.679858 2.285322 -43.035629 23.251797 -5.998159 -1.716773 0.257252 2.051829 -1.000003 0.0 -0.0 
0.0 0.0 0.0 0.0 -0.0 0.0 -6.751949 50.517845 110.053848 101.280205 -54.867142 77.632568 13.061995 -2.631379 -0.338082 -4.962566 -0.794275 -0.166903 22.818779 -3.14527 -3.466394 22.79257 -0.68744 2.661249 -2.497617 -0.707745 1.272103 -26.580482 1.802059 0.037563 7e-06 -0.0 -0.0 -0.245184 -0.053052 0.026677 -0.396333 -0.028043 0.047664 -0.442433 -0.066928 -0.005571 -16.936285 -76.316757 23.180342 72.269875 7.332546 -53.212818 34.125473 0.247658 -0.060259 44.073715 60.428421 51.131443 17.636623 -26.322731 52.411194 -19.46665 -14.395597 29.410381 -0.0 -8.774821 -1e-06 14.607867 -18.546913 7.498122 -0.609777 -1.795653 -3.889326 -4.807087 -11.046808 -2.937849 4e-06 -20.976015 2e-06 -5.019971 -25.033554 -4.031878 7e-06 0.0 -0.0 -10.634532 -5.686968 -3.565587 10.573272 -17.922947 -3.113901 1e-06 -13.821208 4e-06 -0.501779 -31.181498 -4.027015 -11.836986 -58.268829 7.904859 -13.982712 -7.150196 -2.875041 13.772727 -8.401489 -3.21824 0.347733 -34.211544 0.771656 -0.96303 -17.733366 2.621019 1e-06 0.0 -1e-06 -17.346416 -20.095213 -4.20178 21.757555 -1.638374 3.866428 1e-06 -6.338823 1e-06 -1.69759 -22.591742 -6.194003 -0.0 -6e-06 -4e-06 158.125443 -67.984482 26.039482 99.763008 -5.932152 -30.679199 9.217984 -0.015466 0.035924 26.550182 78.358871 27.38113 22.182116 -20.375895 49.933327 -16.701817 -16.74353 28.476538 -2e-06 -12.690601 1e-06 15.889631 -17.777975 3.248722 -0.105919 -1.513856 -4.275882 -5.03904 -5.612869 -2.953557 4e-06 -11.020526 -2e-06 -6.111299 -15.895334 -3.840471 0.0 -0.0 -0.0 -10.283371 -5.680289 -4.341839 11.028295 -11.302404 -2.372633 -1.384267 -14.238579 -6.320123 -0.625436 -26.924187 -3.827605 -4.182211 -49.708263 -3.902241 -13.708526 -7.363476 -3.72094 18.141153 -14.052739 -3.242676 6e-06 -18.787271 -2e-06 -0.429712 -8.456042 2.555504 -0.0 0.0 -0.0 -15.923536 -20.094482 -5.473587 30.41921 -7.190823 1.735925 3e-06 -8.162925 -1e-06 -1.861903 -22.861469 -6.167942 0.0 -3e-06 -1e-06 119.90065 7.059725 0.935962 109.627838 1.900714 0.074504 -60.896328 3.042995 -5.020556 -7.578196 1.355107 2.197076 -0.999997 0.0 0.0 -32.300938 -16.667755 -6.828314 82.77491 -5.104105 1.537843 -47.829922 22.28191 -6.013317 -2.290165 0.222316 2.10177 -1.000004 -1e-06 2e-06 
